<svg xmlns="http://www.w3.org/2000/svg" width="30" height="29.212" viewBox="0 0 30 29.212">
  <g id="line-logo" transform="translate(0 -3.893)">
    <path id="Path_13" data-name="Path 13" d="M29.93,15.169h0l-.009-.077v-.007l-.035-.289-.024-.2-.007-.06-.015,0A11.394,11.394,0,0,0,26.911,8.8a14.928,14.928,0,0,0-5.822-3.832,17.668,17.668,0,0,0-6.1-1.07A17.132,17.132,0,0,0,6.966,5.835C2.356,8.284-.363,12.787.039,17.305a11.837,11.837,0,0,0,2.649,6.437A14.288,14.288,0,0,0,8.3,27.855a21.35,21.35,0,0,0,4.177,1.125l.169.033c.4.079.5.186.531.229a.5.5,0,0,1,0,.322c-.019.079-.038.159-.058.238a4.743,4.743,0,0,0-.189,2,1.4,1.4,0,0,0,1.416,1.3h0A5.248,5.248,0,0,0,16.7,32.2l.082-.048c1.461-.858,2.836-1.825,3.872-2.572a33.666,33.666,0,0,0,6.76-5.885A11.626,11.626,0,0,0,29.93,15.169ZM9.343,19.743H6.754a.708.708,0,0,1-.708-.708V13.6a.708.708,0,0,1,1.416,0v4.724h1.88a.708.708,0,0,1,0,1.416Zm2.7-.727a.708.708,0,1,1-1.416,0V13.583a.708.708,0,1,1,1.416,0Zm6.4,0a.708.708,0,0,1-1.281.416l-2.55-3.512v3.1a.708.708,0,1,1-1.416,0V13.739a.708.708,0,0,1,1.281-.416l2.55,3.512V13.583a.708.708,0,0,1,1.416,0Zm5.16.6H20.1a.708.708,0,0,1-.708-.708V13.472a.708.708,0,0,1,.708-.708h3.4a.708.708,0,1,1,0,1.416H20.808v1.3h2.181a.708.708,0,0,1,0,1.416H20.808v1.3h2.8a.708.708,0,0,1,0,1.416Z" transform="translate(0)" fill="#ffffff"/>
  </g>
</svg>