<svg xmlns="http://www.w3.org/2000/svg" width="30" height="30.144" viewBox="0 0 30 30.144">
  <path id="whatsapp_2_" data-name="whatsapp (2)" d="M25.879,4.381A14.941,14.941,0,0,0,2.369,22.4L.25,30.144l7.919-2.077a14.921,14.921,0,0,0,7.138,1.818h.006a14.944,14.944,0,0,0,10.566-25.5ZM15.313,27.363h-.005a12.4,12.4,0,0,1-6.319-1.731l-.453-.269L3.836,26.6l1.254-4.581-.3-.47a12.415,12.415,0,1,1,10.517,5.818Zm6.81-9.3c-.373-.187-2.208-1.09-2.55-1.214s-.591-.187-.84.187-.964,1.214-1.182,1.463-.435.28-.809.093a10.194,10.194,0,0,1-3-1.853,11.258,11.258,0,0,1-2.076-2.585c-.217-.374,0-.556.164-.762a10.558,10.558,0,0,0,.933-1.277.686.686,0,0,0-.031-.654c-.093-.187-.84-2.024-1.15-2.771-.3-.727-.611-.629-.84-.641s-.466-.013-.715-.013a1.371,1.371,0,0,0-1,.467,4.186,4.186,0,0,0-1.306,3.114A7.261,7.261,0,0,0,9.247,15.48a16.637,16.637,0,0,0,6.376,5.635,21.363,21.363,0,0,0,2.128.786,5.117,5.117,0,0,0,2.351.148,3.845,3.845,0,0,0,2.519-1.775,3.119,3.119,0,0,0,.217-1.775C22.745,18.344,22.5,18.251,22.123,18.064Zm0,0" transform="translate(-0.25)" fill="#ffffff" fill-rule="evenodd"/>
</svg>